# xmcd
#
# Track frame offsets:
# 150
# 21527
# 50017
# 68527
# 107892
# 122555
# 141890
#
# Disc length: 2452 seconds
#
#
# Revision: 0
# Processed by: cddbd v1.5.1PL0 Copyright (c) Steve Scherf et al.
# Submitted via: FreeRIP 2.942 
#
DISCID=63099207
DTITLE=Van Morrison - It's too late to stop now [CD2]
DYEAR=1900
DGENRE=Blues
TTITLE0=Bring it on Home To Me
TTITLE1=Saint Dominic's Preview
TTITLE2=Take Your Hands Out of My Pocket
TTITLE3=Listen to the Lion
TTITLE4=Here Comes the Night
TTITLE5=Gloria
TTITLE6=Caravan
EXTD=May be eighth track, Cyprus Avenue, seems to be missing on mine.
EXTT0=
EXTT1=
EXTT2=
EXTT3=
EXTT4=
EXTT5=
EXTT6=
PLAYORDER=
